<svg id="Layer_1" data-name="Layer 1" xmlns="http://www.w3.org/2000/svg" viewBox="0 0 214.45 152.11"><defs><style>.cls-1{fill:#64071d;}.cls-2{fill:#616262;}</style></defs><path class="cls-1" d="M97.72,126.88H96.18l-1.4-3.4H90.42l-1.4,3.4H87.6l4.81-11.26h.35Zm-3.36-4.39-1.82-4.75-1.77,4.73Z"/><path class="cls-1" d="M110,126.25a7.62,7.62,0,0,1-1.15.45,4.82,4.82,0,0,1-1.14.16h-4.16v-11h4.66a4.47,4.47,0,0,1,3.29,1.85,6,6,0,0,1,1.22,3.73,5.9,5.9,0,0,1-.68,2.82A4.47,4.47,0,0,1,110,126.25Zm1.29-5.57a3.88,3.88,0,0,0-1-2.28,4,4,0,0,0-2.15-1.27h-3.28v8.55h2.82a3.15,3.15,0,0,0,2.66-1.34,4.89,4.89,0,0,0,1-3.66Z"/><path class="cls-1" d="M127,115.88l-4.56,11.29H122l-4.47-11.29h1.51l3.27,9,3.23-9Z"/><path class="cls-1" d="M143.21,121.3a5.83,5.83,0,0,1-5.83,5.85h0a6,6,0,0,1-4.22-1.65,5.31,5.31,0,0,1-1.77-4,5.83,5.83,0,0,1,5.83-5.85h0a6,6,0,0,1,4.22,1.66A5.32,5.32,0,0,1,143.21,121.3Zm-1.37,0a4.23,4.23,0,0,0-1.36-3.19,4.55,4.55,0,0,0-3.26-1.3,4.21,4.21,0,0,0-3.18,1.36,4.58,4.58,0,0,0-1.3,3.27,4.26,4.26,0,0,0,1.35,3.18,4.58,4.58,0,0,0,3.27,1.3,4.21,4.21,0,0,0,3.18-1.37,4.5,4.5,0,0,0,1.3-3.27Z"/><path class="cls-1" d="M157.71,121.28a7.08,7.08,0,0,1-.5,2.77,5.12,5.12,0,0,1-1.64,2.1,5.23,5.23,0,0,1-1.55.68,6.86,6.86,0,0,1-3.73-.08,6,6,0,0,1-1.75-.87,5.66,5.66,0,0,1-1.53-2,6.09,6.09,0,0,1-.53-2.49v-.55c0-.13.08-.55.21-1.28a4.63,4.63,0,0,1,1.53-2.39,5.54,5.54,0,0,1,3.2-1.51,10.09,10.09,0,0,1,3.32.49,4,4,0,0,1,2.19,1.87l-1,.88a4.8,4.8,0,0,0-1.66-1.57,4.43,4.43,0,0,0-2.14-.55,4.54,4.54,0,0,0-1.1.14,4.3,4.3,0,0,0-2.33,1.73,4.94,4.94,0,0,0-.86,2.79,4.07,4.07,0,0,0,.78,2.57,4.46,4.46,0,0,0,3.72,1.9,4.09,4.09,0,0,0,1.55-.28,3.57,3.57,0,0,0,1.27-.79,4.18,4.18,0,0,0,.83-1.13,4.44,4.44,0,0,0,.37-1.29h-3.24v-1.1Z"/><path class="cls-1" d="M171.66,126.88h-1.54l-1.4-3.4h-4.36l-1.4,3.4h-1.42l4.81-11.26h.35Zm-3.36-4.39-1.83-4.73-1.78,4.73Z"/><path class="cls-1" d="M183.93,126.25a7.62,7.62,0,0,1-1.15.45,4.82,4.82,0,0,1-1.14.16h-4.1v-11h4.66a4.49,4.49,0,0,1,3.3,1.85,6.12,6.12,0,0,1,1.21,3.73,5.9,5.9,0,0,1-.68,2.82A4.46,4.46,0,0,1,183.93,126.25Zm1.29-5.57a3.88,3.88,0,0,0-1-2.28,4,4,0,0,0-2.15-1.27h-3.28v8.55h2.82a3.15,3.15,0,0,0,2.66-1.34,4.89,4.89,0,0,0,.95-3.66Z"/><path class="cls-1" d="M202.36,121.3a5.83,5.83,0,0,1-5.83,5.85h0a6,6,0,0,1-4.23-1.65,5.37,5.37,0,0,1-1.76-4,5.83,5.83,0,0,1,5.83-5.85h0a5.92,5.92,0,0,1,4.22,1.66A5.32,5.32,0,0,1,202.36,121.3Zm-1.36,0a4.27,4.27,0,0,0-1.36-3.19,4.58,4.58,0,0,0-3.27-1.3,4.21,4.21,0,0,0-3.18,1.36,4.58,4.58,0,0,0-1.3,3.27,4.26,4.26,0,0,0,1.35,3.18,4.6,4.6,0,0,0,3.3,1.26,4.22,4.22,0,0,0,3.18-1.37,4.54,4.54,0,0,0,1.28-3.23Z"/><path class="cls-1" d="M214.29,117.82l-1.17.55a1.72,1.72,0,0,0-.78-1.1,2.35,2.35,0,0,0-1.36-.42,2.14,2.14,0,0,0-1,.21,1.64,1.64,0,0,0-.68.7,2,2,0,0,0-.18.82,1.61,1.61,0,0,0,.93,1.49l2.81,1a3,3,0,0,1,1.18,1.15,3.16,3.16,0,0,1,.41,1.56,3.27,3.27,0,0,1-1.16,2.51,4.11,4.11,0,0,1-4.43.14,2.86,2.86,0,0,1-.8-.86,6.36,6.36,0,0,1-.49-1.25l1.2-.61a2.09,2.09,0,0,0,.66,1.56,2.29,2.29,0,0,0,1.57.62,2.38,2.38,0,0,0,.7-.11,3,3,0,0,0,.68-.36,1.77,1.77,0,0,0,.53-.68,2,2,0,0,0,.2-.9,1.51,1.51,0,0,0-.31-1,2.74,2.74,0,0,0-.51-.45,5.11,5.11,0,0,0-.74-.37l-1.9-.67a3.62,3.62,0,0,1-1.36-1.09,2.52,2.52,0,0,1-.51-1.56,4.28,4.28,0,0,1,.11-.8,2.61,2.61,0,0,1,.7-1.24,2.45,2.45,0,0,1,1.29-.79,6.56,6.56,0,0,1,1.25-.14h.37l.69.12a3.25,3.25,0,0,1,2.1,2Z"/><path class="cls-1" d="M113.15,75.88l14.66,37.56h13.73c-8.86-22.22-20.31-51-20.31-51l-17.88-3.17a9.29,9.29,0,0,1,3.93,4.06l4.31,9.26c.4.71-8.41,23.4-15.29,40.85h2Z"/><path class="cls-1" d="M88.43,133.35c-2.92,7-6.72,17.12-16.49,17.12v1.64h31.6v-1.64c-5.91,0-17.92-3.88-11.18-21.14H90C89.14,131.59,88.54,133,88.43,133.35Z"/><path class="cls-1" d="M137.74,139.06c2.28,6.84-.89,11.41-7.61,11.41v1.64h32.08v-1.64c-5,0-6.09-1.53-10.52-11.67-.06-.11-1.53-3.79-3.8-9.47h-14Z"/><path class="cls-2" d="M35.25,22.3H0V24c2.41,0,11-.26,11,9.25v72.14L26.09,115c-1.52-2.28-1.9-4.18-1.9-7.61V70.88h5.07C49.67,71.52,45.74,115,59.94,115h21v-1.65c-4.43,0-10.14-.5-12.93-8.49C62.25,89,56.8,70.73,40.44,70.73a34.57,34.57,0,0,0,10.4-2.16,30.06,30.06,0,0,0,12.39-8.18V31.6C56,23.43,42.8,22.3,35.25,22.3Zm.12,46.9H24.22V32.26C24.73,24,33,24,35.1,24h.13C49.3,24,53,33.58,53,46.38,53,68.06,36.77,69.2,35.37,69.2Z"/><path class="cls-2" d="M89.48,0H52.08V1.77c3.68,0,11.15.13,11.15,9.13V31.6c3.1,3.49,5.11,8.28,5.11,14.78a20.85,20.85,0,0,1-5.11,14V83l14.84,9.63c-1.52-2.28-1.9-4.18-1.9-7.61V55.14H87.32c5.83,0,33.72-.25,33.72-28.27C121,3.93,100,0,89.48,0Zm-2,53.62H76.17V14.07a24.45,24.45,0,0,1,.25-5.2c.63-2.79,2.53-5.7,5.32-6.59a16.45,16.45,0,0,1,5.58-.63c18,0,18.38,12.93,18.38,25.73,0,21.55-13,26.24-18.25,26.24Z"/><path class="cls-2" d="M35.25,24h-.13C49,24,52.66,33.58,52.66,46.38c0,21.68-16,22.82-17.42,22.82h.13C36.77,69.2,53,68.06,53,46.38,53,33.58,49.32,24,35.25,24Z"/><path class="cls-2" d="M35.12,24h0c-2.07,0-10.37,0-10.88,8.31C24.75,24.09,32.86,24,35.12,24Z"/></svg>