<svg id="Layer_1" data-name="Layer 1" xmlns="http://www.w3.org/2000/svg" viewBox="0 0 214.48 152.12"><defs><style>.cls-1{fill:#fff;}</style></defs><path class="cls-1" d="M122.18,128h-1.54l-1.4-3.4h-4.36l-1.4,3.4h-1.42l4.81-11.26h.35Zm-3.36-4.39L117,118.86l-1.77,4.73Z" transform="translate(-24.46 -1.12)"/><path class="cls-1" d="M134.45,127.37a6.84,6.84,0,0,1-1.15.45,4.61,4.61,0,0,1-1.14.16H128V117h4.66a4.46,4.46,0,0,1,3.29,1.85,6.09,6.09,0,0,1,1.22,3.73,5.91,5.91,0,0,1-.68,2.82A4.46,4.46,0,0,1,134.45,127.37Zm1.29-5.57a3.88,3.88,0,0,0-1-2.28,4,4,0,0,0-2.15-1.27h-3.28v8.55h2.82a3.15,3.15,0,0,0,2.66-1.34,4.92,4.92,0,0,0,1-3A4.35,4.35,0,0,0,135.74,121.8Z" transform="translate(-24.46 -1.12)"/><path class="cls-1" d="M151.43,117l-4.56,11.29h-.4L142,117h1.51l3.27,9,3.23-9Z" transform="translate(-24.46 -1.12)"/><path class="cls-1" d="M167.67,122.42a5.84,5.84,0,0,1-5.85,5.85,6,6,0,0,1-4.22-1.65,5.32,5.32,0,0,1-1.77-4.05,5.84,5.84,0,0,1,5.85-5.85,6,6,0,0,1,4.22,1.66A5.32,5.32,0,0,1,167.67,122.42Zm-1.37,0a4.23,4.23,0,0,0-1.36-3.19,4.52,4.52,0,0,0-3.26-1.3,4.2,4.2,0,0,0-3.18,1.36,4.56,4.56,0,0,0-1.3,3.27,4.22,4.22,0,0,0,1.35,3.18,4.57,4.57,0,0,0,3.27,1.3,4.21,4.21,0,0,0,3.18-1.37A4.51,4.51,0,0,0,166.3,122.4Z" transform="translate(-24.46 -1.12)"/><path class="cls-1" d="M182.17,122.4a7.28,7.28,0,0,1-.5,2.77,5.08,5.08,0,0,1-1.64,2.1,5.26,5.26,0,0,1-1.55.68,6.73,6.73,0,0,1-1.73.22,6.89,6.89,0,0,1-2-.3A6.1,6.1,0,0,1,173,127a5.71,5.71,0,0,1-1.53-2,6,6,0,0,1-.53-2.49c0-.24,0-.42,0-.55s.08-.55.21-1.28a4.66,4.66,0,0,1,1.53-2.39,5.48,5.48,0,0,1,3.2-1.51,10.05,10.05,0,0,1,3.32.49,4,4,0,0,1,2.19,1.87l-1,.88a4.86,4.86,0,0,0-1.66-1.57,4.34,4.34,0,0,0-2.14-.55,4.74,4.74,0,0,0-1.1.14,4.32,4.32,0,0,0-2.33,1.73,4.91,4.91,0,0,0-.86,2.79,4.1,4.1,0,0,0,.78,2.57,4.82,4.82,0,0,0,1.72,1.46,4.62,4.62,0,0,0,2,.44,4.18,4.18,0,0,0,1.55-.28,3.54,3.54,0,0,0,1.27-.79,4.16,4.16,0,0,0,.83-1.13,4.44,4.44,0,0,0,.37-1.29l-3.24,0v-1.1Z" transform="translate(-24.46 -1.12)"/><path class="cls-1" d="M196.12,128h-1.54l-1.4-3.4h-4.36l-1.4,3.4H186l4.81-11.26h.35Zm-3.36-4.39-1.83-4.73-1.78,4.73Z" transform="translate(-24.46 -1.12)"/><path class="cls-1" d="M208.39,127.37a6.84,6.84,0,0,1-1.15.45,4.61,4.61,0,0,1-1.14.16H202V117h4.66a4.5,4.5,0,0,1,3.3,1.85,6.14,6.14,0,0,1,1.21,3.73,5.91,5.91,0,0,1-.68,2.82A4.46,4.46,0,0,1,208.39,127.37Zm1.29-5.57a3.88,3.88,0,0,0-1-2.28,4,4,0,0,0-2.15-1.27h-3.28v8.55h2.82a3.15,3.15,0,0,0,2.66-1.34,4.92,4.92,0,0,0,1-3A4.35,4.35,0,0,0,209.68,121.8Z" transform="translate(-24.46 -1.12)"/><path class="cls-1" d="M226.82,122.42a5.84,5.84,0,0,1-5.84,5.85,6,6,0,0,1-4.23-1.65,5.35,5.35,0,0,1-1.76-4.05,5.84,5.84,0,0,1,5.84-5.85,5.93,5.93,0,0,1,4.22,1.66A5.32,5.32,0,0,1,226.82,122.42Zm-1.36,0a4.27,4.27,0,0,0-1.36-3.19,4.56,4.56,0,0,0-3.27-1.3,4.23,4.23,0,0,0-3.18,1.36,4.56,4.56,0,0,0-1.3,3.27,4.22,4.22,0,0,0,1.35,3.18A4.59,4.59,0,0,0,221,127a4.24,4.24,0,0,0,3.18-1.37A4.56,4.56,0,0,0,225.46,122.4Z" transform="translate(-24.46 -1.12)"/><path class="cls-1" d="M238.75,118.94l-1.17.55a1.75,1.75,0,0,0-.78-1.1,2.37,2.37,0,0,0-1.36-.42,2.09,2.09,0,0,0-1,.21,1.64,1.64,0,0,0-.68.7,2,2,0,0,0-.18.82,1.6,1.6,0,0,0,.93,1.49l2.81,1a3,3,0,0,1,1.18,1.15,3.19,3.19,0,0,1,.41,1.56,3.26,3.26,0,0,1-1.16,2.51,4.11,4.11,0,0,1-4.43.14,2.82,2.82,0,0,1-.8-.86,6.14,6.14,0,0,1-.49-1.25l1.2-.61a2.07,2.07,0,0,0,.66,1.56,2.26,2.26,0,0,0,1.57.62,2.38,2.38,0,0,0,.7-.11,2.63,2.63,0,0,0,.68-.36,1.81,1.81,0,0,0,.53-.68,2,2,0,0,0,.2-.9,1.51,1.51,0,0,0-.31-1,2.83,2.83,0,0,0-.51-.45,5.36,5.36,0,0,0-.74-.37l-1.9-.67a3.58,3.58,0,0,1-1.36-1.09,2.52,2.52,0,0,1-.51-1.56,4.54,4.54,0,0,1,.11-.8,2.59,2.59,0,0,1,.7-1.24,2.41,2.41,0,0,1,1.29-.79,6.81,6.81,0,0,1,1.25-.14l.37,0,.69.12a2.75,2.75,0,0,1,1.18.65A2.8,2.8,0,0,1,238.75,118.94Z" transform="translate(-24.46 -1.12)"/><path class="cls-1" d="M137.61,77l14.66,37.56H166c-8.86-22.22-20.31-51-20.31-51l-17.88-3.17a9.28,9.28,0,0,1,3.93,4.06l4.31,9.26c.4.71-8.41,23.4-15.29,40.85h2Z" transform="translate(-24.46 -1.12)"/><path class="cls-1" d="M112.89,134.47c-2.92,7-6.72,17.12-16.49,17.12v1.64H128v-1.64c-5.91,0-17.92-3.88-11.18-21.14H114.5C113.6,132.71,113,134.16,112.89,134.47Z" transform="translate(-24.46 -1.12)"/><path class="cls-1" d="M162.2,140.18c2.28,6.84-.89,11.41-7.61,11.41v1.64h32.08v-1.64c-4.95,0-6.09-1.53-10.52-11.67-.06-.11-1.53-3.79-3.8-9.47h-14Z" transform="translate(-24.46 -1.12)"/><path class="cls-1" d="M59.71,23.42H24.46v1.65c2.41,0,11-.26,11,9.25v72.14l15.09,9.63c-1.52-2.28-1.9-4.18-1.9-7.61V72h5.07c20.41.64,16.48,44.12,30.68,44.12h21v-1.65c-4.43,0-10.14-.5-12.93-8.49C86.71,90.1,81.26,71.85,64.9,71.85a34.55,34.55,0,0,0,10.4-2.16,30,30,0,0,0,12.39-8.18V32.72C80.46,24.55,67.26,23.42,59.71,23.42Zm.12,46.9H48.68V34.19c0-.28,0-.55,0-.81.51-8.31,8.81-8.31,10.88-8.31h.13c14.07,0,17.75,9.63,17.75,22.43C77.46,69.18,61.23,70.32,59.83,70.32Z" transform="translate(-24.46 -1.12)"/><path class="cls-1" d="M113.94,1.12H76.54V2.89c3.68,0,11.15.13,11.15,9.13v20.7C90.79,36.21,92.8,41,92.8,47.5a20.8,20.8,0,0,1-5.11,14V84.16l14.84,9.63c-1.52-2.28-1.9-4.18-1.9-7.61V56.26h11.15c5.83,0,33.72-.25,33.72-28.27C145.5,5.05,124.46,1.12,113.94,1.12Zm-2,53.62H100.63V15.19a24.26,24.26,0,0,1,.25-5.2c.63-2.79,2.53-5.7,5.32-6.59a16.56,16.56,0,0,1,5.58-.63c18,0,18.38,12.93,18.38,25.73C130.16,50.05,117.11,54.74,111.91,54.74Z" transform="translate(-24.46 -1.12)"/><path class="cls-1" d="M59.71,25.07h-.13c13.9,0,17.54,9.63,17.54,22.43,0,21.68-16,22.82-17.42,22.82h.13c1.4,0,17.63-1.14,17.63-22.82C77.46,34.7,73.78,25.07,59.71,25.07Z" transform="translate(-24.46 -1.12)"/><path class="cls-1" d="M59.58,25.07h0c-2.07,0-10.37,0-10.88,8.31C49.21,25.21,57.32,25.07,59.58,25.07Z" transform="translate(-24.46 -1.12)"/></svg>