<svg xmlns="http://www.w3.org/2000/svg" version="1.1" xmlns:xlink="http://www.w3.org/1999/xlink" width="32" height="32"><svg id="SvgjsSvg1074" data-name="Layer 1" xmlns="http://www.w3.org/2000/svg" viewBox="0 0 32 32"><path d="M14.58,23.84h-.23l-.21-.5h-.65l-.21.5h-.21l.72-1.68h.05Zm-.5-.65-.28-.71-.26.71Z"></path><path d="M16.41,23.75l-.17.07-.17,0h-.62V22.21h.7a.68.68,0,0,1,.49.27.95.95,0,0,1,.08,1A.63.63,0,0,1,16.41,23.75Zm.19-.83a.61.61,0,0,0-.47-.53h-.49v1.28h.42a.48.48,0,0,0,.4-.2.74.74,0,0,0,.15-.45A.31.31,0,0,0,16.6,22.92Z"></path><path d="M18.94,22.21l-.68,1.68H18.2l-.67-1.68h.22l.49,1.34.48-1.34Z"></path><path d="M21.37,23a.84.84,0,0,1-.26.62.85.85,0,0,1-.62.26.93.93,0,0,1-.63-.25.81.81,0,0,1-.26-.6.87.87,0,0,1,.25-.62.85.85,0,0,1,.62-.26.89.89,0,0,1,.63.25A.78.78,0,0,1,21.37,23Zm-.21,0a.66.66,0,0,0-.2-.48.73.73,0,0,0-.49-.19.63.63,0,0,0-.47.2.7.7,0,0,0-.2.49.63.63,0,0,0,.21.48.69.69,0,0,0,.48.19.66.66,0,0,0,.48-.2A.69.69,0,0,0,21.16,23Z"></path><path d="M23.53,23a1,1,0,0,1-.08.41.82.82,0,0,1-.24.32.94.94,0,0,1-.23.1,1.15,1.15,0,0,1-.26,0,1,1,0,0,1-.3,0,.71.71,0,0,1-.26-.13.93.93,0,0,1-.23-.3.8.8,0,0,1-.08-.37v-.09a1.88,1.88,0,0,1,0-.19.68.68,0,0,1,.23-.35.78.78,0,0,1,.48-.23,1.75,1.75,0,0,1,.49.07.64.64,0,0,1,.33.28l-.15.13a.78.78,0,0,0-.25-.23.66.66,0,0,0-.32-.08.47.47,0,0,0-.16,0,.61.61,0,0,0-.35.26.74.74,0,0,0-.13.41.61.61,0,0,0,.12.39.64.64,0,0,0,.26.21.65.65,0,0,0,.52,0,.62.62,0,0,0,.32-.29,1.05,1.05,0,0,0,.05-.19h-.48V23Z"></path><path d="M25.61,23.84h-.23l-.21-.5h-.65l-.21.5H24.1l.72-1.68h.05Zm-.5-.65-.27-.71-.27.71Z"></path><path d="M27.44,23.75l-.17.07-.17,0h-.62V22.21h.7a.68.68,0,0,1,.49.27.94.94,0,0,1,.18.56.82.82,0,0,1-.1.42A.63.63,0,0,1,27.44,23.75Zm.19-.83a.61.61,0,0,0-.47-.53h-.49v1.28h.43a.47.47,0,0,0,.39-.2.74.74,0,0,0,.15-.45A.31.31,0,0,0,27.63,22.92Z"></path><path d="M30.19,23a.83.83,0,0,1-.25.62.85.85,0,0,1-.62.26.93.93,0,0,1-.63-.25.77.77,0,0,1-.26-.6.83.83,0,0,1,.25-.62.85.85,0,0,1,.62-.26.93.93,0,0,1,.63.25A.81.81,0,0,1,30.19,23ZM30,23a.63.63,0,0,0-.21-.48.69.69,0,0,0-.48-.19.66.66,0,0,0-.48.2.69.69,0,0,0-.19.49.66.66,0,0,0,.2.48.73.73,0,0,0,.49.19.63.63,0,0,0,.47-.2A.7.7,0,0,0,30,23Z"></path><path d="M32,22.49l-.17.09a.3.3,0,0,0-.12-.17.36.36,0,0,0-.2-.06.33.33,0,0,0-.15,0,.27.27,0,0,0-.1.11.25.25,0,0,0,0,.12.23.23,0,0,0,.13.22l.42.15a.45.45,0,0,1,.18.18.46.46,0,0,1,.06.23.45.45,0,0,1,0,.2.43.43,0,0,1-.13.17.56.56,0,0,1-.35.11.65.65,0,0,1-.31-.08.47.47,0,0,1-.12-.13,1.21,1.21,0,0,1-.08-.19l.18-.09a.33.33,0,0,0,.1.23.36.36,0,0,0,.24.09h.1a.21.21,0,0,0,.1-.06.2.2,0,0,0,.08-.1.28.28,0,0,0,0-.13.21.21,0,0,0-.05-.16l-.07-.07-.11-.05-.28-.1a.49.49,0,0,1-.21-.16.41.41,0,0,1-.08-.24s0-.06,0-.12a.46.46,0,0,1,.11-.18.44.44,0,0,1,.19-.12l.19,0h0l.1,0a.47.47,0,0,1,.31.29Z"></path><path d="M16.88,16.24l2.19,5.61h2.05l-3-7.61-2.67-.47a1.32,1.32,0,0,1,.59.6l.64,1.38c.06.11-1.25,3.49-2.28,6.1h.3Z"></path><path d="M13.19,24.81c-.43,1-1,2.55-2.46,2.55v.25h4.71v-.25c-.88,0-2.67-.57-1.67-3.15h-.34C13.3,24.55,13.21,24.77,13.19,24.81Z"></path><path d="M20.55,25.66c.34,1-.13,1.7-1.13,1.7v.25H24.2v-.25c-.74,0-.91-.22-1.57-1.74,0,0-.23-.56-.57-1.41H20Z"></path><path d="M5.26,8.24H0v.25c.36,0,1.65,0,1.65,1.38V20.63L3.9,22.07a1.78,1.78,0,0,1-.29-1.14V15.49h.76c3,.09,2.46,6.58,4.58,6.58h3.14v-.25a1.75,1.75,0,0,1-1.93-1.26C9.29,18.19,8.47,15.47,6,15.47a5.15,5.15,0,0,0,1.55-.32,4.44,4.44,0,0,0,1.85-1.22V9.63C8.35,8.41,6.38,8.24,5.26,8.24Zm0,7H3.61V9.85a.49.49,0,0,1,0-.12c.07-1.24,1.31-1.24,1.62-1.24h0c2.1,0,2.65,1.44,2.65,3.35C7.91,15.07,5.49,15.24,5.28,15.24Z"></path><path d="M13.35,4.92H7.77v.26c.55,0,1.66,0,1.66,1.36V9.63a3.15,3.15,0,0,1,.76,2.21,3.09,3.09,0,0,1-.76,2.09V17.3l2.22,1.44a1.75,1.75,0,0,1-.29-1.13V13.14H13c.87,0,5,0,5-4.21C18.06,5.5,14.92,4.92,13.35,4.92Zm-.3,8H11.36V7a3.43,3.43,0,0,1,0-.78,1.32,1.32,0,0,1,.8-1,2.28,2.28,0,0,1,.83-.1c2.68,0,2.74,1.93,2.74,3.84C15.77,12.22,13.82,12.92,13.05,12.92Z"></path><path d="M5.26,8.49h0c2.07,0,2.62,1.44,2.62,3.35,0,3.23-2.4,3.4-2.6,3.4h0c.21,0,2.63-.17,2.63-3.4C7.91,9.93,7.36,8.49,5.26,8.49Z"></path><path d="M5.24,8.49h0c-.31,0-1.55,0-1.62,1.24C3.69,8.51,4.9,8.49,5.24,8.49Z"></path></svg><style>@media (prefers-color-scheme: light) { :root { filter: none; } }
@media (prefers-color-scheme: dark) { :root { filter: invert(100%); } }
</style></svg>